<svg width="1159" height="1140" viewBox="0 0 1159 1140" fill="none" xmlns="http://www.w3.org/2000/svg">
<path d="M368.515 330.221C424.673 274.053 490.452 245.266 568.528 245.266C646.603 245.266 713.734 274.053 768.541 330.221C824.699 387.767 852.103 456.287 852.103 535.754C852.103 585.083 841.13 630.303 820.591 670.037L1087.73 778.29C1121.98 708.419 1139.79 630.303 1139.79 546.728C1139.79 396.011 1083.63 267.215 972.662 160.34C861.696 53.4375 727.463 0 569.906 0C412.35 0 278.116 53.4375 167.123 160.313C56.1582 267.188 0 395.983 0 546.7C0 697.417 56.1582 826.213 167.123 933.088C278.089 1039.96 412.35 1093.4 569.906 1093.4C643.874 1093.4 713.761 1081.08 778.135 1057.78L674.007 807.023C641.117 820.727 606.876 826.214 568.528 826.214C490.452 826.214 424.673 798.805 368.515 741.259C313.708 685.092 286.304 616.572 286.304 535.726C286.304 454.881 313.708 387.739 368.515 330.193V330.221Z" fill="#F4304D"/>
<path d="M1019.25 882.408C1032.95 867.326 1043.9 852.27 1054.87 835.809L680.871 672.767L842.535 1027.64C860.345 1018.04 879.533 1007.1 895.964 994.743L1042.55 1139.97L1159 1020.77L1019.25 882.381" fill="#1F1F1F"/>
</svg>
